<svg xmlns="http://www.w3.org/2000/svg" width="17" height="16" viewBox="0 0 170 160"><g transform="matrix(.1 0 0 .1.88-4.51)" fill="#5e5000"><path d="m987 1328c-91-101-179-196-196-212-38-36-38-46-5-77l25-24 47 50c68 73 262 282 310 336 23 25 42 51 42 56 0 10-42 53-52 53-3 0-80-82-171-182"/><path d="m252 1388c-19-25-23-55-8-67 28-24 437-281 446-281 5 0 17 14 25 31 12 23 13 34 5 44-15 18-434 285-448 285-5 0-14-6-20-12"/><path d="m1330 1210c-102-38-200-78-218-89-31-21-32-22-17-50l14-29 212 79c116 43 217 84 225 90 11 9 11 16-2 40-8 16-18 29-22 28-4 0-90-32-192-69"/><path d="m405 1061c-6-11 29-33 39-24 7 7-12 33-25 33-4 0-10-4-14-9"/><path d="m254 1036c-3-8-4-25-2-38 3-20 10-24 63-29 68-8 75-6 75 21 0 39-123 80-136 46"/></g><g fill="#ff7f00"><path d="m565 949c-4-6-13-8-21-5-8 3-19-4-26-17-6-12-23-34-37-48-115-118-126-220-34-337 54-68 73-109 73-155 0-46 33-87 69-87 32 0 56 23 72 68 9 27 14 31 26 21 38-32 66-123 53-170-5-18-5-41 0-55 9-23 14-25 67-22 58 3 58 3 80 48 12 25 30 71 40 102 10 32 21 58 24 58 3 0 14-9 24-20 22-25 67-26 88-2 9 10 33 51 54 92 36 71 38 80 38 170 0 90-2 98-38 165-20 39-40 93-43 119-8 54-23 65-59 42-60-40-73-130-31-222 14-31 26-74 26-95 0-38 0-38-27-24-17 9-34 33-50 71-13 32-32 67-42 78-29 33-33 56-15 84 21 32 20 88-2 113-57 63-156-27-156-142 0-46 14-81 78-199 13-24 24-60 24-79v-35l-42 41c-24 22-62 52-84 66-23 14-52 42-64 62-20 33-22 44-15 108 15 136 12 187-9 203-24 17-33 18-41 3" transform="matrix(.1 0 0 .1.88-4.51)"/></g><g transform="matrix(.1 0 0 .1.88-4.51)" fill="#947e00"><path d="m1134 1512c-6-4-84-90-173-192-89-102-171-191-181-199-18-12-24-10-54 13-19 14-127 91-242 171-146 102-210 142-219 135-6-5-31-55-55-110-50-119-55-106 79-200 47-34 124-90 171-126 73-57 89-65 117-61 29 5 32 3 38-24 7-30 47-69 73-69 8 0 34 20 56 45 35 37 48 45 78 45 32 0 37-3 43-29 7-31 42-61 72-61 9 0 34 16 54 36 29 28 43 35 61 31 20-6 23-13 25-59 1-37 7-56 19-65 27-20 31-17 70 44 33 52 35 58 19 69-15 11-13 14 21 23 190 53 376 109 384 117 6 6 0 42-15 97-13 48-22 87-19 87 3 0 0 9-6 20-6 11-15 18-20 15-5-3-11-1-15 5-4 6-12 7-18 3-7-4-21-9-32-10-10-2-30-10-42-18-13-9-23-13-23-10 0 2-43-11-96-30-53-19-104-35-113-35-9 0-34-12-56-27-29-19-11 4 63 82 56 59 102 115 102 124-1 20-127 171-143 171-7 0-17-4-23-8m46-37c6-8 10-19 8-24-5-14-371-411-379-411-3 0-12 7-19 15-10 12-7 21 15 47 61 73 350 388 356 388 4 0 12-7 19-15m-684-231c118-75 214-139 214-143 0-4-6-15-13-25-12-16-30-7-228 119-117 75-214 140-213 146 1 5 2 16 3 24 0 8 6 15 12 15 6 0 108-61 225-136m1035-6c7-14-24-28-196-92-113-42-209-76-214-76-19 0-18 27 1 39 10 6 75 32 144 56 69 25 131 48 137 52 7 4 21 9 32 10 11 2 29 10 40 17 25 17 44 14 56-6"/><path d="m246 1047c-16-12-17-20-6-95 7-45 19-87 26-93 9-7 29-9 52-5 20 4 64 9 96 11 43 4 66 11 83 27 42 40 32 54-87 113-116 58-135 63-164 42m94-32c31-16 42-42 14-31-9 3-31 6-50 6-27 0-34 4-34 20 0 25 29 26 70 5"/></g></svg>